<?xml version="1.0" encoding="UTF-8"?>
<svg width="263px" height="231px" viewBox="0 0 263 231" version="1.1" xmlns="http://www.w3.org/2000/svg" xmlns:xlink="http://www.w3.org/1999/xlink">
    <title>Artwork</title>
    <defs>
        <linearGradient x1="100%" y1="14.8283039%" x2="0%" y2="85.1716961%" id="linearGradient-1">
            <stop stop-color="#FF8960" offset="0%"></stop>
            <stop stop-color="#FF62A5" offset="100%"></stop>
        </linearGradient>
        <linearGradient x1="124.31875%" y1="14.4778034%" x2="-15.7072917%" y2="93.0034006%" id="linearGradient-2">
            <stop stop-color="#1162D7" offset="0%"></stop>
            <stop stop-color="#78F3E3" offset="66.1989796%"></stop>
            <stop stop-color="#52E5BB" offset="100%"></stop>
        </linearGradient>
        <linearGradient x1="100%" y1="0%" x2="0%" y2="100%" id="linearGradient-3">
            <stop stop-color="#FF8960" offset="0%"></stop>
            <stop stop-color="#FF62A5" offset="100%"></stop>
        </linearGradient>
    </defs>
    <g id="Page-1" stroke="none" stroke-width="1" fill="none" fill-rule="evenodd">
        <g id="access-camera" transform="translate(-56.000000, -142.000000)">
            <g id="Artwork" transform="translate(56.000000, 142.000000)">
                <path d="M238.0313,126.1084 C238.0313,183.4294 191.5623,229.8984 134.2413,229.8984 C76.9203,229.8984 30.4523,183.4294 30.4523,126.1084 C30.4523,68.7874 76.9203,22.3184 134.2413,22.3184 C191.5623,22.3184 238.0313,68.7874 238.0313,126.1084 Z" id="Stroke-1" stroke="#E9EAEC" stroke-dasharray="5.017,5.017"></path>
                <path d="M211.3165,126.1084 C211.3165,168.6754 176.8085,203.1834 134.2415,203.1834 C91.6735,203.1834 57.1675,168.6754 57.1675,126.1084 C57.1675,83.5414 91.6735,49.0334 134.2415,49.0334 C176.8085,49.0334 211.3165,83.5414 211.3165,126.1084 Z" id="Stroke-3" stroke="#E9EAEC" stroke-dasharray="5.045,5.045"></path>
                <line x1="10.8448" y1="140.0825" x2="8.9178" y2="140.0235" id="Stroke-5" stroke="#D2D8DF" stroke-linecap="round"></line>
                <line x1="9.4624" y1="136.4287" x2="8.0804" y2="137.7197" id="Stroke-7" stroke="#D2D8DF" stroke-linecap="round"></line>
                <line x1="5.8604" y1="134.7603" x2="5.8314" y2="136.6443" id="Stroke-9" stroke="#D2D8DF" stroke-linecap="round"></line>
                <line x1="2.148" y1="136.0537" x2="3.49" y2="137.4277" id="Stroke-11" stroke="#D2D8DF" stroke-linecap="round"></line>
                <line x1="0.5" y1="139.5523" x2="2.426" y2="139.6113" id="Stroke-13" stroke="#D2D8DF" stroke-linecap="round"></line>
                <line x1="1.8819" y1="143.2061" x2="3.2649" y2="141.9151" id="Stroke-15" stroke="#D2D8DF" stroke-linecap="round"></line>
                <line x1="5.4844" y1="144.875" x2="5.5134" y2="142.991" id="Stroke-17" stroke="#D2D8DF" stroke-linecap="round"></line>
                <line x1="9.1968" y1="143.5811" x2="7.8548" y2="142.2071" id="Stroke-19" stroke="#D2D8DF" stroke-linecap="round"></line>
                <line x1="262.1475" y1="113.2222" x2="261.3005" y2="114.1392" id="Stroke-21" stroke="#D2D8DF" stroke-linecap="round"></line>
                <line x1="258.171" y1="114.0191" x2="258.81" y2="114.6081" id="Stroke-23" stroke="#D2D8DF" stroke-linecap="round"></line>
                <line x1="257.5264" y1="118.0835" x2="258.3734" y2="117.1665" id="Stroke-25" stroke="#D2D8DF" stroke-linecap="round"></line>
                <line x1="261.502" y1="117.2866" x2="260.864" y2="116.6976" id="Stroke-27" stroke="#D2D8DF" stroke-linecap="round"></line>
                <line x1="184.5704" y1="5.4468" x2="182.5214" y2="5.3918" id="Stroke-29" stroke="#D2D8DF" stroke-linecap="round"></line>
                <line x1="179.2686" y1="0.5" x2="179.2376" y2="2.251" id="Stroke-31" stroke="#D2D8DF" stroke-linecap="round"></line>
                <line x1="173.5665" y1="4.9541" x2="175.6155" y2="5.0081" id="Stroke-33" stroke="#D2D8DF" stroke-linecap="round"></line>
                <line x1="178.8682" y1="9.9009" x2="178.8992" y2="8.1499" id="Stroke-35" stroke="#D2D8DF" stroke-linecap="round"></line>
                <path d="M32.837,194.5064 C31.363,194.9474 28.908,197.1134 28.068,199.6814 C27.927,197.2954 26.412,194.2964 24.745,193.8644 C26.779,193.1454 28.982,190.5024 29.568,188.2754 C29.462,190.6094 31.581,193.9984 32.837,194.5064" id="Fill-37" fill="#EBECEF"></path>
                <path d="M67.3594,14.8257 C66.2224,15.0267 64.2074,16.4267 63.3594,18.2667 C63.4604,16.4777 62.5914,14.1127 61.3874,13.6467 C62.9644,13.2867 64.8344,11.5087 65.4634,9.9007 C65.1824,11.6307 66.4674,14.3387 67.3594,14.8257" id="Fill-39" fill="#EBECEF"></path>
                <path d="M218.0596,27.8169 C216.5406,27.7839 215.3366,26.5269 215.3706,25.0089 C215.4036,23.4909 216.6606,22.2869 218.1776,22.3199 C219.6966,22.3529 220.9006,23.6099 220.8676,25.1279 C220.8336,26.6459 219.5776,27.8499 218.0596,27.8169" id="Fill-41" fill="#D1D9E0"></path>
                <path d="M218.0665,207.9693 C216.7455,207.9413 215.6975,206.8463 215.7255,205.5253 C215.7535,204.2033 216.8485,203.1553 218.1705,203.1833 C219.4925,203.2123 220.5405,204.3063 220.5115,205.6283 C220.4825,206.9493 219.3885,207.9983 218.0665,207.9693" id="Fill-43" fill="#EBECEF"></path>
                <path d="M19.3223,64.3033 C18.5043,64.2853 17.8553,63.6083 17.8733,62.7893 C17.8903,61.9713 18.5683,61.3233 19.3863,61.3403 C20.2043,61.3583 20.8533,62.0353 20.8363,62.8533 C20.8183,63.6723 20.1403,64.3213 19.3223,64.3033 Z" id="Stroke-45" stroke="#D2D8DF" stroke-linecap="round"></path>
                <path d="M178.8995,58.5674 C178.8995,63.8324 174.6305,68.1004 169.3665,68.1004 C164.1005,68.1004 159.8335,63.8324 159.8335,58.5674 C159.8335,53.3024 164.1005,49.0334 169.3665,49.0334 C174.6305,49.0334 178.8995,53.3024 178.8995,58.5674" id="Fill-47" fill="#FFFFFF"></path>
                <path d="M220,70 C220,70 220.965233,63.5480327 223.947555,63.5480327 C226.484384,63.5480327 227.350619,68.2744739 229.862699,64.4983225 C232.671774,60.2720338 234.725987,54.8953944 241,70 L220,70 Z M224,55 C225.6572,55 227,56.344 227,58 C227,59.6572 225.6572,61 224,61 C222.3428,61 221,59.6572 221,58 C221,56.344 222.3428,55 224,55 L224,55 Z M244.45,50 L216.55,50 C215.6944,50 215,50.6933333 215,51.547619 L215,74.452381 C215,75.3066667 215.6944,76 216.55,76 L244.45,76 C245.3056,76 246,75.3066667 246,74.452381 L246,51.547619 C246,50.6933333 245.3056,50 244.45,50 L244.45,50 Z" id="Fill-1" fill="url(#linearGradient-1)"></path>
                <path d="M45,170 C45,170 44.1726576,163.548033 41.6163819,163.548033 C39.4419564,163.548033 38.6994697,168.274474 36.5462581,164.498322 C34.1384797,160.272034 32.3777254,154.895394 27,170 L45,170 Z M41.5,155 C42.881,155 44,156.12 44,157.5 C44,158.881 42.881,160 41.5,160 C40.119,160 39,158.881 39,157.5 C39,156.12 40.119,155 41.5,155 L41.5,155 Z M46.8,153 L25.2,153 C24.5376,153 24,153.533333 24,154.190476 L24,171.809524 C24,172.466667 24.5376,173 25.2,173 L46.8,173 C47.4624,173 48,172.466667 48,171.809524 L48,154.190476 C48,153.533333 47.4624,153 46.8,153 L46.8,153 Z" id="Fill-1-Copy" fill="url(#linearGradient-2)"></path>
                <g id="Camera" transform="translate(90.000000, 91.000000)">
                    <path d="M76.3207142,5.28094915 L73.156726,5.28094915 L73.156726,2.95050847 C73.156726,1.32772881 71.8103977,0 70.1677372,0 L64.4674252,0 C62.827098,0 61.4831031,1.32772881 61.4831031,2.95050847 L61.4831031,5.28094915 L12.6792858,5.28094915 C5.67697874,5.28094915 0,10.8892203 0,17.8067797 L0,55.4741695 C0,62.3917288 5.67697874,68 12.6792858,68 L76.3207142,68 C83.3230213,68 89,62.3917288 89,55.4741695 L89,17.8067797 C89,10.8892203 83.3230213,5.28094915 76.3207142,5.28094915" id="Fill-12" fill="#435059"></path>
                    <path d="M60,38 C60,49.5968393 50.5997198,59 39.0011768,59 C27.4026338,59 18,49.5968393 18,38 C18,26.400807 27.4026338,17 39.0011768,17 C50.5997198,17 60,26.400807 60,38" id="Fill-15" fill="#343E44"></path>
                    <path d="M58,37 C58,48.0451583 49.0456794,57 37.9988362,57 C26.9543206,57 18,48.0451583 18,37 C18,25.952514 26.9543206,17 37.9988362,17 C49.0456794,17 58,25.952514 58,37" id="Fill-17" fill="#485D67"></path>
                    <path d="M51,36.5 C51,43.402156 45.4016953,49 38.4989713,49 C31.5941898,49 26,43.402156 26,36.5 C26,29.597844 31.5941898,24 38.4989713,24 C45.4016953,24 51,29.597844 51,36.5" id="Fill-19" fill="url(#linearGradient-3)"></path>
                    <path d="M40,34 C40,36.2092624 38.2092624,38 36,38 C33.7907376,38 32,36.2092624 32,34 C32,31.7907376 33.7907376,30 36,30 C38.2092624,30 40,31.7907376 40,34" id="Fill-21" fill="#FFFFFF"></path>
                </g>
            </g>
        </g>
    </g>
</svg>