<?xml version="1.0" encoding="UTF-8"?>
<svg width="263px" height="231px" viewBox="0 0 263 231" version="1.1" xmlns="http://www.w3.org/2000/svg" xmlns:xlink="http://www.w3.org/1999/xlink">
    <title>Artwork</title>
    <defs>
        <linearGradient x1="-11.0071178%" y1="-18.3805753%" x2="90.3582514%" y2="119.707064%" id="linearGradient-1">
            <stop stop-color="#90E18B" offset="0%"></stop>
            <stop stop-color="#56C3A4" offset="100%"></stop>
        </linearGradient>
        <linearGradient x1="100%" y1="0%" x2="0%" y2="100%" id="linearGradient-2">
            <stop stop-color="#FF8960" offset="0%"></stop>
            <stop stop-color="#FF62A5" offset="100%"></stop>
        </linearGradient>
        <linearGradient x1="100%" y1="37.6880416%" x2="0%" y2="62.3119584%" id="linearGradient-3">
            <stop stop-color="#FF8960" offset="0%"></stop>
            <stop stop-color="#FF62A5" offset="100%"></stop>
        </linearGradient>
        <linearGradient x1="51.58502%" y1="0%" x2="48.41498%" y2="100%" id="linearGradient-4">
            <stop stop-color="#FF8960" offset="0%"></stop>
            <stop stop-color="#FF62A5" offset="100%"></stop>
        </linearGradient>
        <linearGradient x1="51.7534478%" y1="0%" x2="48.2465522%" y2="100%" id="linearGradient-5">
            <stop stop-color="#FF8960" offset="0%"></stop>
            <stop stop-color="#FF62A5" offset="100%"></stop>
        </linearGradient>
        <linearGradient x1="63.488389%" y1="0%" x2="36.511611%" y2="100%" id="linearGradient-6">
            <stop stop-color="#FF8960" offset="0%"></stop>
            <stop stop-color="#FF62A5" offset="100%"></stop>
        </linearGradient>
        <linearGradient x1="61.4952953%" y1="0%" x2="38.5047047%" y2="100%" id="linearGradient-7">
            <stop stop-color="#FF8960" offset="0%"></stop>
            <stop stop-color="#FF62A5" offset="100%"></stop>
        </linearGradient>
    </defs>
    <g id="Page-1" stroke="none" stroke-width="1" fill="none" fill-rule="evenodd">
        <g id="Enable-push-notifications" transform="translate(-56.000000, -142.000000)">
            <g id="Artwork" transform="translate(56.000000, 142.000000)">
                <path d="M167.3018,155.4434 L166.5348,158.4724 L90.8218,139.3064 L91.5878,136.2774 C97.6458,137.8104 102.3448,131.9754 103.1048,128.9774 L107.4738,111.7144 C110.9338,99.1514 122.3738,90.4584 135.4058,90.4904 C136.5218,86.3234 140.8058,83.8514 144.9718,84.9684 C149.1388,86.0854 151.6118,90.3684 150.4938,94.5354 C161.9228,100.9144 167.7808,114.0634 164.8778,126.8254 L160.6468,143.5434 C159.7488,147.0864 164.2738,154.6764 167.3018,155.4434" id="Fill-1" fill="#F1F2F7"></path>
                <path d="M115.0704,148.667 C115.7974,156.397 122.6524,162.075 130.3824,161.349 C134.5924,160.954 138.4014,158.684 140.7534,155.168 L115.0704,148.667 Z" id="Fill-3" fill="#FFDA3E"></path>
                <path d="M238.0313,126.1084 C238.0313,183.4294 191.5623,229.8984 134.2413,229.8984 C76.9203,229.8984 30.4523,183.4294 30.4523,126.1084 C30.4523,68.7874 76.9203,22.3184 134.2413,22.3184 C191.5623,22.3184 238.0313,68.7874 238.0313,126.1084 Z" id="Stroke-5" stroke="#E9EAEC" stroke-dasharray="5.017,5.017"></path>
                <path d="M211.3165,126.1084 C211.3165,168.6754 176.8085,203.1834 134.2415,203.1834 C91.6735,203.1834 57.1675,168.6754 57.1675,126.1084 C57.1675,83.5414 91.6735,49.0334 134.2415,49.0334 C176.8085,49.0334 211.3165,83.5414 211.3165,126.1084 Z" id="Stroke-7" stroke="#E9EAEC" stroke-dasharray="5.045,5.045"></path>
                <path d="M207.2598,55.0723 C208.7558,55.0723 209.9658,56.2813 209.9658,57.7783 C209.9658,59.2753 208.7558,60.4843 207.2598,60.4843 C205.7628,60.4843 204.5528,59.2753 204.5528,57.7783 C204.5528,56.2813 205.7628,55.0723 207.2598,55.0723 M215.3778,55.0723 C216.8748,55.0723 218.0838,56.2813 218.0838,57.7783 C218.0838,59.2753 216.8748,60.4843 215.3778,60.4843 C213.8808,60.4843 212.6718,59.2753 212.6718,57.7783 C212.6718,56.2813 213.8808,55.0723 215.3778,55.0723 M223.4958,55.0723 C224.9928,55.0723 226.2018,56.2813 226.2018,57.7783 C226.2018,59.2753 224.9928,60.4843 223.4958,60.4843 C221.9988,60.4843 220.7898,59.2753 220.7898,57.7783 C220.7898,56.2813 221.9988,55.0723 223.4958,55.0723 M204.2318,72.6623 L217.1458,72.6623 C218.3638,72.6623 218.3638,72.6713 218.9468,73.1023 C219.5308,73.5333 226.1948,78.0743 226.1948,78.0743 L226.1948,72.6623 L226.5068,72.6623 C230.0748,72.6623 232.9588,69.9733 232.9588,66.6243 L232.9588,48.9583 C232.9588,45.6093 230.0678,42.8943 226.5068,42.8943 L204.2318,42.8943 C200.6718,42.8943 197.7798,45.6093 197.7798,48.9583 L197.7798,66.6243 C197.7798,69.9733 200.6718,72.6623 204.2318,72.6623" id="Fill-9" fill="url(#linearGradient-1)"></path>
                <path d="M47.9268,86.2535 C47.9268,87.2325 47.1368,88.0225 46.1568,88.0225 C45.1788,88.0225 44.3888,87.2325 44.3888,86.2535 C44.3888,85.2745 45.1788,84.4835 46.1568,84.4835 C47.1368,84.4835 47.9268,85.2745 47.9268,86.2535 M42.6188,86.2535 C42.6188,87.2325 41.8278,88.0225 40.8498,88.0225 C39.8708,88.0225 39.0798,87.2325 39.0798,86.2535 C39.0798,85.2745 39.8708,84.4835 40.8498,84.4835 C41.8278,84.4835 42.6188,85.2745 42.6188,86.2535 M37.3108,86.2535 C37.3108,87.2325 36.5198,88.0225 35.5408,88.0225 C34.5628,88.0225 33.7718,87.2325 33.7718,86.2535 C33.7718,85.2745 34.5628,84.4835 35.5408,84.4835 C36.5198,84.4835 37.3108,85.2745 37.3108,86.2535 M52.3568,92.0375 L52.3568,80.4865 C52.3568,78.2965 50.4648,76.5215 48.1378,76.5215 L33.5728,76.5215 C31.2448,76.5215 29.3538,78.2965 29.3538,80.4865 L29.3538,92.0375 C29.3538,94.2265 31.2398,95.9845 33.5728,95.9845 L33.7778,95.9845 L33.7778,99.5245 C33.7778,99.5245 38.1348,96.5545 38.5158,96.2725 C38.8978,95.9905 38.8978,95.9845 39.6938,95.9845 L48.1378,95.9845 C50.4648,95.9845 52.3568,94.2265 52.3568,92.0375" id="Fill-11" fill="url(#linearGradient-2)"></path>
                <path d="M115.0762,148.6846 C115.8032,156.4146 122.6582,162.0926 130.3882,161.3666 C134.5982,160.9716 138.4072,158.7016 140.7592,155.1856 L115.0762,148.6846 Z" id="Fill-13" fill="url(#linearGradient-3)"></path>
                <path d="M176.1221,102.2403 C177.8851,104.3613 179.2091,106.8593 180.1091,109.5073 C181.0261,112.1563 181.4741,114.9703 181.5201,117.7863 C181.5201,119.1953 181.4191,120.6023 181.2371,121.9973 C180.9971,123.3853 180.7201,124.7633 180.2841,126.0983 C179.4411,128.7693 178.1671,131.3023 176.4311,133.4583 C176.3561,133.5513 176.2221,133.5653 176.1291,133.4913 C176.0571,133.4323 176.0331,133.3363 176.0611,133.2523 C176.9651,130.6793 177.7141,128.1413 178.2171,125.5663 C178.3101,124.9163 178.4381,124.2763 178.5461,123.6333 C178.6201,122.9843 178.7181,122.3403 178.7741,121.6923 C178.8161,121.0433 178.9001,120.3983 178.9271,119.7493 C178.9371,119.0993 178.9681,118.4503 178.9651,117.8013 C178.9801,115.2023 178.6901,112.6073 178.1851,110.0313 C177.6661,107.4533 176.8851,104.9143 175.9471,102.3413 C175.9281,102.2883 175.9551,102.2293 176.0081,102.2103 C176.0501,102.1943 176.0951,102.2083 176.1221,102.2403" id="Fill-15" fill="url(#linearGradient-4)"></path>
                <path d="M186.0518,103.1411 C187.7538,105.1021 189.0358,107.4281 189.9288,109.8971 C190.8238,112.3691 191.3408,114.9951 191.4328,117.6371 C191.5328,120.2781 191.2108,122.9331 190.5048,125.4621 C189.7998,127.9901 188.7008,130.4061 187.1508,132.4881 C187.1408,132.5011 187.1218,132.5041 187.1098,132.4951 C187.0998,132.4871 187.0958,132.4741 187.0988,132.4631 C187.7408,129.9571 188.2788,127.5191 188.6048,125.0681 C188.9308,122.6181 189.0378,120.1691 188.9468,117.7291 C188.8468,115.2901 188.5518,112.8591 188.0328,110.4461 C187.5158,108.0301 186.7848,105.6461 185.9518,103.1991 C185.9418,103.1681 185.9578,103.1351 185.9888,103.1241 C186.0118,103.1161 186.0368,103.1231 186.0518,103.1411" id="Fill-17" fill="url(#linearGradient-5)"></path>
                <path d="M95.292,115.6553 C94.752,112.9663 94.746,110.1573 95.174,107.4113 C95.588,104.6583 96.478,101.9743 97.714,99.4673 C98.98,96.9753 100.598,94.6563 102.552,92.6723 C104.492,90.6813 106.742,88.9943 109.224,87.8163 C109.269,87.7953 109.321,87.8143 109.342,87.8583 C109.359,87.8943 109.35,87.9363 109.321,87.9623 C107.302,89.7953 105.443,91.7063 103.8,93.7753 C102.169,95.8483 100.726,98.0513 99.56,100.3963 C98.362,102.7263 97.448,105.1953 96.753,107.7423 C96.069,110.2953 95.647,112.9303 95.378,115.6513 C95.375,115.6743 95.354,115.6923 95.33,115.690452 C95.311,115.6883 95.296,115.6733 95.292,115.6553" id="Fill-19" fill="url(#linearGradient-6)"></path>
                <path d="M86.8155,110.3394 C86.3045,107.8144 86.2955,105.1834 86.6665,102.6074 C87.0495,100.0314 87.8145,97.5004 88.9435,95.1434 C90.0605,92.7824 91.5025,90.5734 93.2375,88.6384 C94.9645,86.7004 96.9605,85.0064 99.1845,83.7264 C97.3685,85.5344 95.7005,87.4204 94.2455,89.4484 C92.7955,91.4784 91.5345,93.6194 90.5125,95.8714 C89.5005,98.1264 88.6885,100.4684 88.1095,102.8854 C87.5145,105.3014 87.1575,107.7804 86.9005,110.3354 C86.8975,110.3584 86.8775,110.3754 86.8525,110.37356 C86.8345,110.3714 86.8185,110.3574 86.8155,110.3394" id="Fill-21" fill="url(#linearGradient-7)"></path>
                <path d="M167.3077,155.461 C167.3077,155.461 162.8297,153.721 160.4757,151.238 C157.1977,147.781 157.4137,144.009 159.6297,136.729 C162.2367,128.06 162.1657,118.928 161.1617,114.742 C157.6647,100.156 150.4997,94.553 150.4997,94.553 C161.9287,100.932 167.7867,114.081 164.8837,126.843 L160.6527,143.561 C159.9107,146.031 164.2797,154.694 167.3077,155.461 L166.5407,158.49 L167.3077,155.461 Z" id="Fill-23" fill="#D8DBEA"></path>
                <line x1="10.8448" y1="140.0825" x2="8.9178" y2="140.0235" id="Stroke-25" stroke="#D2D8DF" stroke-linecap="round"></line>
                <line x1="9.4624" y1="136.4287" x2="8.0804" y2="137.7197" id="Stroke-27" stroke="#D2D8DF" stroke-linecap="round"></line>
                <line x1="5.8604" y1="134.7603" x2="5.8314" y2="136.6443" id="Stroke-29" stroke="#D2D8DF" stroke-linecap="round"></line>
                <line x1="2.148" y1="136.0537" x2="3.49" y2="137.4277" id="Stroke-31" stroke="#D2D8DF" stroke-linecap="round"></line>
                <line x1="0.5" y1="139.5523" x2="2.426" y2="139.6113" id="Stroke-33" stroke="#D2D8DF" stroke-linecap="round"></line>
                <line x1="1.8819" y1="143.2061" x2="3.2649" y2="141.9151" id="Stroke-35" stroke="#D2D8DF" stroke-linecap="round"></line>
                <line x1="5.4844" y1="144.875" x2="5.5134" y2="142.991" id="Stroke-37" stroke="#D2D8DF" stroke-linecap="round"></line>
                <line x1="9.1968" y1="143.5811" x2="7.8548" y2="142.2071" id="Stroke-39" stroke="#D2D8DF" stroke-linecap="round"></line>
                <line x1="262.1475" y1="113.2222" x2="261.3005" y2="114.1392" id="Stroke-41" stroke="#D2D8DF" stroke-linecap="round"></line>
                <line x1="258.171" y1="114.0191" x2="258.81" y2="114.6081" id="Stroke-43" stroke="#D2D8DF" stroke-linecap="round"></line>
                <line x1="257.5264" y1="118.0835" x2="258.3734" y2="117.1665" id="Stroke-45" stroke="#D2D8DF" stroke-linecap="round"></line>
                <line x1="261.502" y1="117.2866" x2="260.864" y2="116.6976" id="Stroke-47" stroke="#D2D8DF" stroke-linecap="round"></line>
                <line x1="184.5704" y1="5.4468" x2="182.5214" y2="5.3918" id="Stroke-49" stroke="#D2D8DF" stroke-linecap="round"></line>
                <line x1="179.2686" y1="0.5" x2="179.2376" y2="2.251" id="Stroke-51" stroke="#D2D8DF" stroke-linecap="round"></line>
                <line x1="173.5665" y1="4.9541" x2="175.6155" y2="5.0081" id="Stroke-53" stroke="#D2D8DF" stroke-linecap="round"></line>
                <line x1="178.8682" y1="9.9009" x2="178.8992" y2="8.1499" id="Stroke-55" stroke="#D2D8DF" stroke-linecap="round"></line>
                <path d="M32.837,194.5064 C31.363,194.9474 28.908,197.1134 28.068,199.6814 C27.927,197.2954 26.412,194.2964 24.745,193.8644 C26.779,193.1454 28.982,190.5024 29.568,188.2754 C29.462,190.6094 31.581,193.9984 32.837,194.5064" id="Fill-57" fill="#EBECEF"></path>
                <path d="M67.3594,14.8257 C66.2224,15.0267 64.2074,16.4267 63.3594,18.2667 C63.4604,16.4777 62.5914,14.1127 61.3874,13.6467 C62.9644,13.2867 64.8344,11.5087 65.4634,9.9007 C65.1824,11.6307 66.4674,14.3387 67.3594,14.8257" id="Fill-59" fill="#EBECEF"></path>
                <path d="M218.0596,27.8169 C216.5406,27.7839 215.3366,26.5269 215.3706,25.0089 C215.4036,23.4909 216.6606,22.2869 218.1776,22.3199 C219.6966,22.3529 220.9006,23.6099 220.8676,25.1279 C220.8336,26.6459 219.5776,27.8499 218.0596,27.8169" id="Fill-61" fill="#D1D9E0"></path>
                <path d="M218.0665,207.9693 C216.7455,207.9413 215.6975,206.8463 215.7255,205.5253 C215.7535,204.2033 216.8485,203.1553 218.1705,203.1833 C219.4925,203.2123 220.5405,204.3063 220.5115,205.6283 C220.4825,206.9493 219.3885,207.9983 218.0665,207.9693" id="Fill-63" fill="#EBECEF"></path>
                <path d="M19.3223,64.3033 C18.5043,64.2853 17.8553,63.6083 17.8733,62.7893 C17.8903,61.9713 18.5683,61.3233 19.3863,61.3403 C20.2043,61.3583 20.8533,62.0353 20.8363,62.8533 C20.8183,63.6723 20.1403,64.3213 19.3223,64.3033 Z" id="Stroke-65" stroke="#D2D8DF" stroke-linecap="round"></path>
            </g>
        </g>
    </g>
</svg>