<?xml version="1.0" encoding="UTF-8"?>
<svg width="263px" height="231px" viewBox="0 0 263 231" version="1.1" xmlns="http://www.w3.org/2000/svg" xmlns:xlink="http://www.w3.org/1999/xlink">
    <title>Artwork</title>
    <defs>
        <linearGradient x1="14.7607901%" y1="-18.3805753%" x2="73.3119175%" y2="119.707064%" id="linearGradient-1">
            <stop stop-color="#90E18B" offset="0%"></stop>
            <stop stop-color="#56C3A4" offset="100%"></stop>
        </linearGradient>
        <linearGradient x1="78.879677%" y1="0%" x2="21.120323%" y2="100%" id="linearGradient-2">
            <stop stop-color="#FF8960" offset="0%"></stop>
            <stop stop-color="#FF62A5" offset="100%"></stop>
        </linearGradient>
    </defs>
    <g id="Page-1" stroke="none" stroke-width="1" fill="none" fill-rule="evenodd">
        <g id="Enable-location-services" transform="translate(-56.000000, -142.000000)">
            <g id="Artwork" transform="translate(56.000000, 142.000000)">
                <path d="M238.0313,126.1084 C238.0313,183.4294 191.5623,229.8984 134.2413,229.8984 C76.9203,229.8984 30.4523,183.4294 30.4523,126.1084 C30.4523,68.7874 76.9203,22.3184 134.2413,22.3184 C191.5623,22.3184 238.0313,68.7874 238.0313,126.1084 Z" id="Stroke-1" stroke="#E9EAEC" stroke-dasharray="5.017,5.017"></path>
                <path d="M211.3165,126.1084 C211.3165,168.6754 176.8085,203.1834 134.2415,203.1834 C91.6735,203.1834 57.1675,168.6754 57.1675,126.1084 C57.1675,83.5414 91.6735,49.0334 134.2415,49.0334 C176.8085,49.0334 211.3165,83.5414 211.3165,126.1084 Z" id="Stroke-3" stroke="#E9EAEC" stroke-dasharray="5.045,5.045"></path>
                <line x1="10.8448" y1="140.0825" x2="8.9178" y2="140.0235" id="Stroke-5" stroke="#D2D8DF" stroke-linecap="round"></line>
                <line x1="9.4624" y1="136.4287" x2="8.0804" y2="137.7197" id="Stroke-7" stroke="#D2D8DF" stroke-linecap="round"></line>
                <line x1="5.8604" y1="134.7603" x2="5.8314" y2="136.6443" id="Stroke-9" stroke="#D2D8DF" stroke-linecap="round"></line>
                <line x1="2.148" y1="136.0537" x2="3.49" y2="137.4277" id="Stroke-11" stroke="#D2D8DF" stroke-linecap="round"></line>
                <line x1="0.5" y1="139.5523" x2="2.426" y2="139.6113" id="Stroke-13" stroke="#D2D8DF" stroke-linecap="round"></line>
                <line x1="1.8819" y1="143.2061" x2="3.2649" y2="141.9151" id="Stroke-15" stroke="#D2D8DF" stroke-linecap="round"></line>
                <line x1="5.4844" y1="144.875" x2="5.5134" y2="142.991" id="Stroke-17" stroke="#D2D8DF" stroke-linecap="round"></line>
                <line x1="9.1968" y1="143.5811" x2="7.8548" y2="142.2071" id="Stroke-19" stroke="#D2D8DF" stroke-linecap="round"></line>
                <line x1="262.1475" y1="113.2222" x2="261.3005" y2="114.1392" id="Stroke-21" stroke="#D2D8DF" stroke-linecap="round"></line>
                <line x1="258.171" y1="114.0191" x2="258.81" y2="114.6081" id="Stroke-23" stroke="#D2D8DF" stroke-linecap="round"></line>
                <line x1="257.5264" y1="118.0835" x2="258.3734" y2="117.1665" id="Stroke-25" stroke="#D2D8DF" stroke-linecap="round"></line>
                <line x1="261.502" y1="117.2866" x2="260.864" y2="116.6976" id="Stroke-27" stroke="#D2D8DF" stroke-linecap="round"></line>
                <line x1="184.5704" y1="5.4468" x2="182.5214" y2="5.3918" id="Stroke-29" stroke="#D2D8DF" stroke-linecap="round"></line>
                <line x1="179.2686" y1="0.5" x2="179.2376" y2="2.251" id="Stroke-31" stroke="#D2D8DF" stroke-linecap="round"></line>
                <line x1="173.5665" y1="4.9541" x2="175.6155" y2="5.0081" id="Stroke-33" stroke="#D2D8DF" stroke-linecap="round"></line>
                <line x1="178.8682" y1="9.9009" x2="178.8992" y2="8.1499" id="Stroke-35" stroke="#D2D8DF" stroke-linecap="round"></line>
                <path d="M32.837,194.5064 C31.363,194.9474 28.908,197.1134 28.068,199.6814 C27.927,197.2954 26.412,194.2964 24.745,193.8644 C26.779,193.1454 28.982,190.5024 29.568,188.2754 C29.462,190.6094 31.581,193.9984 32.837,194.5064" id="Fill-37" fill="#EBECEF"></path>
                <path d="M67.3594,14.8257 C66.2224,15.0267 64.2074,16.4267 63.3594,18.2667 C63.4604,16.4777 62.5914,14.1127 61.3874,13.6467 C62.9644,13.2867 64.8344,11.5087 65.4634,9.9007 C65.1824,11.6307 66.4674,14.3387 67.3594,14.8257" id="Fill-39" fill="#EBECEF"></path>
                <path d="M218.0596,27.8169 C216.5406,27.7839 215.3366,26.5269 215.3706,25.0089 C215.4036,23.4909 216.6606,22.2869 218.1776,22.3199 C219.6966,22.3529 220.9006,23.6099 220.8676,25.1279 C220.8336,26.6459 219.5776,27.8499 218.0596,27.8169" id="Fill-41" fill="#D1D9E0"></path>
                <path d="M218.0665,207.9693 C216.7455,207.9413 215.6975,206.8463 215.7255,205.5253 C215.7535,204.2033 216.8485,203.1553 218.1705,203.1833 C219.4925,203.2123 220.5405,204.3063 220.5115,205.6283 C220.4825,206.9493 219.3885,207.9983 218.0665,207.9693" id="Fill-43" fill="#EBECEF"></path>
                <path d="M19.3223,64.3033 C18.5043,64.2853 17.8553,63.6083 17.8733,62.7893 C17.8903,61.9713 18.5683,61.3233 19.3863,61.3403 C20.2043,61.3583 20.8533,62.0353 20.8363,62.8533 C20.8183,63.6723 20.1403,64.3213 19.3223,64.3033 Z" id="Stroke-45" stroke="#D2D8DF" stroke-linecap="round"></path>
                <path d="M178.8995,58.5674 C178.8995,63.8324 174.6305,68.1004 169.3665,68.1004 C164.1005,68.1004 159.8335,63.8324 159.8335,58.5674 C159.8335,53.3024 164.1005,49.0334 169.3665,49.0334 C174.6305,49.0334 178.8995,53.3024 178.8995,58.5674" id="Fill-47" fill="#FFFFFF"></path>
                <path d="M73.3975,184.5547 L59.1955,96.8887 C58.9845,95.5907 59.5815,94.2947 60.7035,93.6107 L98.2145,70.7137 C98.9525,70.2637 99.8385,70.1267 100.6765,70.3337 L146.9475,81.7777 C147.8145,81.9917 148.7315,81.8377 149.4815,81.3527 L180.4355,61.3237 C182.2555,60.1457 184.6975,61.0567 185.2995,63.1397 L211.3435,153.0617 C211.7245,154.3787 211.2345,155.7927 210.1215,156.5917 L181.6235,177.0147 C180.8505,177.5677 179.8755,177.7537 178.9545,177.5237 L124.7495,163.9727 C123.9915,163.7837 123.1895,163.8747 122.4945,164.2297 L78.0625,186.9187 C76.1085,187.9157 73.7495,186.7207 73.3975,184.5547" id="Fill-49" fill="#F1F2F7"></path>
                <path d="M169.4844,65.9839 C164.9764,65.9839 161.3224,62.3289 161.3224,57.8209 C161.3224,53.3129 164.9764,49.6579 169.4844,49.6579 C173.9934,49.6579 177.6474,53.3129 177.6474,57.8209 C177.6474,62.3289 173.9934,65.9839 169.4844,65.9839 M169.4844,40.5879 C160.2314,40.3259 152.5174,47.6149 152.2554,56.8679 C152.2484,57.1309 152.2474,57.3949 152.2524,57.6579 C152.2524,71.9519 168.2144,85.1759 168.8864,85.7199 C169.2254,86.0109 169.7254,86.0109 170.0654,85.7199 C170.7724,85.0859 186.7174,70.5369 186.7174,57.6579 C186.8914,48.4019 179.5304,40.7579 170.2744,40.5849 C170.0114,40.5799 169.7484,40.5810525 169.4844,40.5879" id="Fill-51" fill="url(#linearGradient-1)"></path>
                <path d="M105.1983,144.7744 L132.8263,151.9824 C135.7333,152.7404 138.0203,149.4814 136.3123,147.0104 C126.7753,133.2184 108.9253,104.6334 125.7203,105.8334 C147.8223,107.4124 143.6123,127.3724 148.3483,130.0224 C153.0853,132.6714 181.5013,126.7534 182.5533,116.2944 C183.6063,105.8334 179.9233,100.5714 172.5553,97.4144 C165.1883,94.2564 168.8863,85.7204 168.8863,85.7204" id="Stroke-53" stroke="#0E1D25" stroke-width="2" stroke-dasharray="7"></path>
                <path d="M69.8653,108.5298 L67.9743,101.1768 C67.5563,99.5528 68.2763,97.8498 69.7333,97.0168 L92.7793,83.8478 C92.9613,83.7438 93.1503,83.6558 93.3463,83.5838 L100.9853,80.7888 C101.6463,80.5468 102.3633,80.4968 103.0523,80.6458 L119.8143,84.2728 C121.1573,84.5628 122.2303,85.5688 122.6073,86.8888 C123.3263,89.4048 121.2953,91.8568 118.6903,91.6198 L111.3163,90.9498 C108.9573,90.7348 107.0003,92.7488 107.2823,95.1008 L107.9613,100.7598 C108.1673,102.4758 107.1653,104.1078 105.5423,104.7008 L90.0483,110.3598 C88.9563,110.7578 87.7423,110.6238 86.7633,109.9978 L82.5143,107.2798 C80.7793,106.1688 78.4723,106.6788 77.3663,108.4168 L76.6123,109.6018 C74.8633,112.3498 70.6773,111.6848 69.8653,108.5298" id="Fill-55" fill="#D8DBEA"></path>
                <path d="M171.7247,141.8076 L177.0147,164.4806 C177.6227,167.0866 180.7017,168.2196 182.8537,166.6286 L200.4667,153.6096 C201.6987,152.7006 202.2467,151.1296 201.8497,149.6506 L197.7177,134.2506 C197.1717,132.2146 195.0467,131.0376 193.0327,131.6546 L174.2607,137.4016 C172.3877,137.9746 171.2797,139.9006 171.7247,141.8076" id="Fill-57" fill="#D8DBEA"></path>
                <path d="M149.9932,149.3159 L162.0742,150.0899 C163.6562,150.1919 165.0012,151.2839 165.4242,152.8129 L167.7722,161.2949 C168.5282,164.0239 166.0822,166.5639 163.3262,165.9109 L151.3682,163.0789 C150.1722,162.7959 149.1922,161.9399 148.7512,160.7929 L146.2802,154.3679 C145.3062,151.8339 147.2842,149.1429 149.9932,149.3159" id="Fill-59" fill="#D8DBEA"></path>
                <path d="M94.0801,143.7954 C89.1991,143.7954 85.2421,139.8384 85.2421,134.9584 C85.2421,130.0774 89.1991,126.1204 94.0801,126.1204 C98.9611,126.1204 102.9171,130.0774 102.9171,134.9584 C102.9171,139.8384 98.9611,143.7954 94.0801,143.7954 M94.0801,116.3014 C84.0611,116.0174 75.7111,123.9084 75.4271,133.9264 C75.4191,134.2114 75.4181,134.4964 75.4231,134.7814 C75.4231,150.2564 92.7051,164.5734 93.4321,165.1624 C93.7991,165.4774 94.3411,165.4774 94.7081,165.1624 C95.4751,164.4754 112.7361,148.7254 112.7361,134.7814 C112.9251,124.7614 104.9551,116.4854 94.9341,116.2974 C94.6491,116.2924 94.3641,116.2934 94.0801,116.3014" id="Fill-61" fill="url(#linearGradient-2)"></path>
            </g>
        </g>
    </g>
</svg>